<svg id="Capa_1" data-name="Capa 1" xmlns="http://www.w3.org/2000/svg" viewBox="0 0 2826.92 863.15"><defs><style>.cls-1{fill:#3c3c3b;}.cls-2{fill:#e9545c;}.cls-3{fill:#f6a907;}.cls-4{fill:#26a990;}.cls-5{fill:#976caa;}</style></defs><title>Marca_CANTAMUS</title><path class="cls-1" d="M883.09,421.81c0,34.37,23.07,53.52,50.49,53.52,25.67,0,40-16.1,44.82-32.19L1036.72,461c-9.57,37.86-45.26,75.29-103.14,75.29-64.4,0-116.18-47.44-116.18-114.46,0-67.46,50.47-114.89,114-114.89,59.63,0,94.44,36.55,104,75.29L976.22,400c-4.78-16.53-17.84-32.19-43.51-32.19C905.29,367.85,883.09,387,883.09,421.81Z"/><path class="cls-1" d="M1110.24,404.84l50.93-7.83c11.76-1.74,15.66-7.42,15.66-14.81,0-12.63-10.88-23.49-31.76-23.49-23.07,0-35.7,15.66-37,31.76l-57.45-11.73c2.62-30.9,31.32-71.82,94.87-71.82,70.05,0,95.72,39.17,95.72,83.55V496.23a212,212,0,0,0,2.62,33.5h-59.63c-.44-1.74-2.16-9.57-2.16-24.36-11.32,18.28-32.21,30.47-60.94,30.47-47.44,0-74.85-31.34-74.85-65.71C1046.27,431.82,1074.56,410.05,1110.24,404.84Zm66.59,40v-9.57l-40.89,6.54c-13.94,2.16-24.38,8.7-24.38,23.93,0,11.32,7.39,22.2,25.67,22.2C1156.8,488,1176.83,478.38,1176.83,444.86Z"/><path class="cls-1" d="M1345.68,529.73h-66.15V313.46h64v24.8c11.76-20.46,38.3-30.47,60.48-30.47,54.42,0,78.78,38.73,78.78,86.17V529.73H1416.6V405.28c0-21.33-11.32-37.43-35.24-37.43-21.77,0-35.68,16.1-35.68,37.86Z"/><path class="cls-1" d="M1600.22,313.46h42.22v57.86h-42.22v81c0,17.84,9.57,22.62,23.95,22.62a81.51,81.51,0,0,0,17.4-2.18v54.83c-2.62,1.31-13.5,6.11-34.37,6.11-44.84,0-72.26-26.54-72.26-69.64V371.32h-38.3V313.46h10.88c22.64,0,33.52-15.25,33.52-35.27V250.34h59.17Z"/><path class="cls-1" d="M1724.67,404.84l50.93-7.83c11.76-1.74,15.66-7.42,15.66-14.81,0-12.63-10.88-23.49-31.76-23.49-23.07,0-35.7,15.66-37,31.76l-57.45-11.73c2.62-30.9,31.32-71.82,94.87-71.82,70.05,0,95.72,39.17,95.72,83.55V496.23a212,212,0,0,0,2.62,33.5h-59.63c-.44-1.74-2.16-9.57-2.16-24.36-11.32,18.28-32.21,30.47-60.94,30.47-47.44,0-74.85-31.34-74.85-65.71C1660.7,431.82,1689,410.05,1724.67,404.84Zm66.59,40v-9.57l-40.89,6.54c-13.94,2.16-24.38,8.7-24.38,23.93,0,11.32,7.39,22.2,25.67,22.2C1771.23,488,1791.25,478.38,1791.25,444.86Z"/><path class="cls-1" d="M1893.93,529.73V313.46H1957v24.8c10.88-19.15,38.72-31.34,62.21-31.34,30.9,0,53.11,12.63,64,34,17-24.38,37.86-34,67-34,40.92,0,80.09,23.95,80.09,82.68V529.73h-64V404.41c0-20.46-10.88-36.55-34.39-36.55s-36.12,17.84-36.12,37V529.73h-65.28V404.41c0-20.46-10.88-36.55-34.81-36.55-23.07,0-35.67,17.84-35.67,37.43V529.73Z"/><path class="cls-1" d="M2406.1,508c-11.32,18.71-36.12,26.54-57.88,26.54-52.65,0-82.24-38.3-82.24-84.43V313.46h66.15v122.7c0,20.89,11.32,37.43,34.81,37.43,22.2,0,36.12-15.22,36.12-37V313.46h66.15V491a338.18,338.18,0,0,0,2.18,38.73h-63.53C2407,525.82,2406.1,513.63,2406.1,508Z"/><path class="cls-1" d="M2548.41,458.36c.87,14.79,11.32,29.16,33.94,29.16,17,0,25.23-9.14,25.23-18.71,0-7.83-5.21-14.37-21.31-17.84l-24.82-5.67c-46.13-10-64.4-36.12-64.4-66.56,0-39.61,34.83-71.82,83.12-71.82,62.68,0,84.43,39.17,86.61,64.4l-54.83,10c-1.74-14.35-10.88-26.54-30.9-26.54-12.61,0-23.49,7.39-23.49,18.71,0,9.14,7.39,14.37,17,16.1l28.72,5.67c44.82,9.14,66.59,36.12,66.59,67.87,0,37-28.29,73.13-86.17,73.13-67.89,0-89.64-44-91.38-67.89Z"/><rect class="cls-1" x="1681.66" y="247.86" width="172.48" height="39.83"/><path class="cls-2" d="M283.13,474.75c-84,0-152.36-67.48-152.36-150.43s68.35-150.4,152.36-150.4,152.39,67.48,152.39,150.4S367.15,474.75,283.13,474.75Zm0-237.53c-49.1,0-89.07,39.07-89.07,87.11s40,87.13,89.07,87.13,89.09-39.09,89.09-87.13S332.26,237.22,283.13,237.22Z"/><path class="cls-3" d="M555.62,334.35c-51.11,0-92.71-41.15-92.71-91.73s41.6-91.71,92.71-91.71,92.71,41.13,92.71,91.71S606.73,334.35,555.62,334.35Zm0-120.14c-16.22,0-29.41,12.75-29.41,28.41S539.4,271,555.62,271,585,258.3,585,242.62,571.84,214.21,555.62,214.21Z"/><path class="cls-4" d="M336.42,750.9c-65.92,0-119.54-53-119.54-118.12S270.5,514.65,336.42,514.65,456,567.66,456,632.79,402.34,750.9,336.42,750.9Zm0-173c-31,0-56.24,24.59-56.24,54.84s25.23,54.82,56.24,54.82,56.27-24.59,56.27-54.82S367.45,578,336.42,578Z"/><path class="cls-5" d="M574.95,614.46c-65.92,0-119.56-53-119.56-118.14S509,378.21,574.95,378.21s119.54,53,119.54,118.12S640.87,614.46,574.95,614.46Zm0-173c-31,0-56.27,24.59-56.27,54.82s25.23,54.84,56.27,54.84,56.24-24.59,56.24-54.84S606,441.51,574.95,441.51Z"/></svg>