<svg id="Capa_1" data-name="Capa 1" xmlns="http://www.w3.org/2000/svg" viewBox="0 0 303.32 76.89"><defs><style>.cls-1{fill:#3c3c3b;}.cls-2{fill:#986baa;}.cls-3{fill:#f7a900;}.cls-4{fill:#27a990;}.cls-5{fill:#e9535c;}</style></defs><title>voceful_studio</title><path class="cls-1" d="M182.19,44.67a15.9,15.9,0,0,1-31.81,0,15.47,15.47,0,0,1,15.91-15.84C175.27,28.83,182.19,35.39,182.19,44.67Zm-9.16,0c0-5.06-3.25-7.41-6.74-7.41s-6.75,2.35-6.75,7.41,3.32,7.47,6.75,7.47S173,49.73,173,44.67Z" transform="translate(-26.68 -15.22)"/><path class="cls-1" d="M190.58,15.22a5.36,5.36,0,1,1-5.3,5.36A5.38,5.38,0,0,1,190.58,15.22Zm-4.52,44.45V29.73h9.15V59.67Z" transform="translate(-26.68 -15.22)"/><path class="cls-1" d="M208.53,44.73c0,4.76,3.19,7.41,7,7.41a6.18,6.18,0,0,0,6.2-4.46l8.07,2.47c-1.32,5.24-6.26,10.42-14.27,10.42-8.92,0-16.09-6.56-16.09-15.84a15.46,15.46,0,0,1,15.78-15.91c8.26,0,13.07,5.06,14.4,10.42l-8.19,2.47a5.89,5.89,0,0,0-6-4.45C211.6,37.26,208.53,39.91,208.53,44.73Z" transform="translate(-26.68 -15.22)"/><path class="cls-1" d="M277.48,37.44V59.67h-9.16V37.44h-4.76V29.73h4.76V27.14c0-6.87,4.15-11.57,11.45-11.57a11.14,11.14,0,0,1,4.34.66v7.47a10.43,10.43,0,0,0-2.71-.3c-1.62,0-3.91.72-3.91,4v2.29H284v7.71Z" transform="translate(-26.68 -15.22)"/><path class="cls-1" d="M307.09,56.66c-1.57,2.59-5,3.67-8,3.67-7.29,0-11.38-5.3-11.38-11.68V29.73h9.16v17c0,2.89,1.56,5.18,4.82,5.18a4.78,4.78,0,0,0,5-5.12V29.73h9.16V54.31a47.45,47.45,0,0,0,.3,5.36h-8.79A21.42,21.42,0,0,1,307.09,56.66Z" transform="translate(-26.68 -15.22)"/><path class="cls-1" d="M320.84,59.67V16.06H330V59.67Z" transform="translate(-26.68 -15.22)"/><path class="cls-1" d="M253.37,50.21A5.88,5.88,0,0,1,248,52.8c-3.56,0-6.63-2.41-6.81-5.78h20.84a18.58,18.58,0,0,0,.18-2.83c0-9.64-5.72-15.36-15-15.36-7.77,0-14.94,6.15-14.94,15.78,0,10.06,7.35,16,15.6,16,5.87,0,10-2.6,12.28-6.17Zm-6-14.15c4.34,0,5.9,2.77,6,5.06h-12A5.7,5.7,0,0,1,247.36,36.06Z" transform="translate(-26.68 -15.22)"/><path class="cls-1" d="M139.27,29.73c0,11.72-2.53,18.87-4.81,21.41a1.41,1.41,0,0,1-1.93,0c-2.13-2.45-4.9-9.7-4.9-21.38h-9.19c0,15.11,4.7,30.47,15,30.47s15-15.36,15-30.47Z" transform="translate(-26.68 -15.22)"/><path class="cls-1" d="M126.51,74.48c-1.67,0-2.75.61-2.75,1.74,0,3.75,9.94,1.72,9.91,8.35,0,3.46-3,5.47-7.08,5.47a12,12,0,0,1-7.82-3l1.48-3a10.41,10.41,0,0,0,6.4,2.72c2,0,3.17-.74,3.17-2,0-3.86-9.94-1.66-9.94-8.25,0-3.23,2.78-5.29,6.93-5.29a12.6,12.6,0,0,1,6.69,2l-1.43,3.07A11.83,11.83,0,0,0,126.51,74.48Z" transform="translate(-26.68 -15.22)"/><path class="cls-1" d="M151.66,71.41v3.15h-5.76V89.91h-3.57V74.55h-5.76V71.41Z" transform="translate(-26.68 -15.22)"/><path class="cls-1" d="M163.61,86.9c2.8,0,4.57-1.75,4.57-4.71V71.41h3.54V82.19c0,4.86-3.09,7.88-8.12,7.88s-8.22-3-8.22-7.88V71.41h3.54V82.19A4.38,4.38,0,0,0,163.61,86.9Z" transform="translate(-26.68 -15.22)"/><path class="cls-1" d="M194.85,80.66c0,5.39-4.07,9.25-9.78,9.25h-7.56V71.41h7.69C190.8,71.41,194.85,75.24,194.85,80.66Zm-3.62,0a5.92,5.92,0,0,0-6.08-6.16H181V86.79h4.23A5.82,5.82,0,0,0,191.23,80.69Z" transform="translate(-26.68 -15.22)"/><path class="cls-1" d="M203.08,71.41V89.91h-3.54V71.41Z" transform="translate(-26.68 -15.22)"/><path class="cls-1" d="M227.49,80.66c0,5.31-4.28,9.41-9.86,9.41s-9.86-4.1-9.86-9.41,4.28-9.36,9.86-9.36S227.49,75.35,227.49,80.66Zm-16.1,0a6.28,6.28,0,0,0,6.29,6.24,6.21,6.21,0,1,0-6.29-6.24Z" transform="translate(-26.68 -15.22)"/><path class="cls-2" d="M80.3,60.42a9.81,9.81,0,0,1-7-2.89l-4.37-4.37a3.39,3.39,0,0,0-4.66,0l-4.37,4.37a10.13,10.13,0,0,1-14,0l-4.37-4.37a3.38,3.38,0,0,0-4.66-.1L32.28,57.6a3.29,3.29,0,1,1-4.61-4.7l4.64-4.54a9.92,9.92,0,0,1,13.92.15l4.37,4.37a3.39,3.39,0,0,0,4.66,0l4.37-4.37a10.13,10.13,0,0,1,14,0L78,52.87a3.39,3.39,0,0,0,4.66,0L87.55,48a3.29,3.29,0,0,1,4.66,4.66l-4.92,4.92A9.81,9.81,0,0,1,80.3,60.42Z" transform="translate(-26.68 -15.22)"/><path class="cls-3" d="M90.71,70.9H30a3.29,3.29,0,0,1,0-6.59H90.71a3.29,3.29,0,0,1,0,6.59Z" transform="translate(-26.68 -15.22)"/><path class="cls-4" d="M80.93,92.1a3.29,3.29,0,0,1-2-.66l-12.1-9.1-11.7,9a3.3,3.3,0,0,1-4,0l-12-9.07L32,87.9a3.3,3.3,0,0,1-4.08-5.18l9.16-7.21a3.28,3.28,0,0,1,4,0l12,9.09,11.7-9a3.31,3.31,0,0,1,4,0l12,9,7.06-5.78a3.29,3.29,0,0,1,4.17,5.1L83,91.36A3.28,3.28,0,0,1,80.93,92.1Z" transform="translate(-26.68 -15.22)"/><path class="cls-5" d="M90.66,34.21H83.39V25.72H63.62v8.49H57V25.72H37.25v8.49H30a3.29,3.29,0,0,0,0,6.59H43.84V32.31h6.59V40.8H70.21V32.31H76.8V40.8H90.66a3.29,3.29,0,0,0,0-6.59Z" transform="translate(-26.68 -15.22)"/></svg>